<svg aria-roledescription="architecture" role="graphics-document document" viewBox="-352.7652282714844 -308.7133483886719 738.5304565429688 748.4266967773438" style="max-width: 738.5304565429688px;" xmlns:xlink="http://www.w3.org/1999/xlink" xmlns="http://www.w3.org/2000/svg" width="100%" id="mermaid-1738252192816"><style>#mermaid-1738252192816{font-family:"trebuchet ms",verdana,arial,sans-serif;font-size:16px;fill:#333;}#mermaid-1738252192816 .error-icon{fill:#552222;}#mermaid-1738252192816 .error-text{fill:#552222;stroke:#552222;}#mermaid-1738252192816 .edge-thickness-normal{stroke-width:1px;}#mermaid-1738252192816 .edge-thickness-thick{stroke-width:3.5px;}#mermaid-1738252192816 .edge-pattern-solid{stroke-dasharray:0;}#mermaid-1738252192816 .edge-thickness-invisible{stroke-width:0;fill:none;}#mermaid-1738252192816 .edge-pattern-dashed{stroke-dasharray:3;}#mermaid-1738252192816 .edge-pattern-dotted{stroke-dasharray:2;}#mermaid-1738252192816 .marker{fill:#333333;stroke:#333333;}#mermaid-1738252192816 .marker.cross{stroke:#333333;}#mermaid-1738252192816 svg{font-family:"trebuchet ms",verdana,arial,sans-serif;font-size:16px;}#mermaid-1738252192816 p{margin:0;}#mermaid-1738252192816 .edge{stroke-width:3;stroke:#333333;fill:none;}#mermaid-1738252192816 .arrow{fill:#333333;}#mermaid-1738252192816 .node-bkg{fill:none;stroke:hsl(240, 60%, 86.2745098039%);stroke-width:2px;stroke-dasharray:8;}#mermaid-1738252192816 .node-icon-text{display:flex;align-items:center;}#mermaid-1738252192816 .node-icon-text&gt;div{color:#fff;margin:1px;height:fit-content;text-align:center;overflow:hidden;display:-webkit-box;-webkit-box-orient:vertical;}#mermaid-1738252192816 :root{--mermaid-font-family:"trebuchet ms",verdana,arial,sans-serif;}</style><g></g><g class="architecture-edges"><g><path class="edge" d="M -165.26522169241935,-144.71334816047332 L -92.19287570696957,-144.71334816047332 L-19.120529721519773,-144.71334816047332"></path><polygon class="arrow" transform="translate(-30.45386305485311,-151.38001482713997)" points="13.333333333333334,6.666666666666667 0,13.333333333333334 0,0"></polygon></g><g><path class="edge" d="M 20.879470278480227,-104.71334816047332 L 20.879470278480227,-43.83063677067938 L20.879470278480227,17.052074619114563"></path><polygon class="arrow" transform="translate(14.212803611813559,5.718741285781229)" points="0,0 13.333333333333334,0 6.666666666666667,13.333333333333334"></polygon></g><g><path class="edge" d="M 20.879470278480227,97.05207461911455 L 20.879470278480227,157.88271138979394 L20.879470278480227,218.71334816047334"></path><polygon class="arrow" transform="translate(14.212803611813559,207.38001482714)" points="0,0 13.333333333333334,0 6.666666666666667,13.333333333333334"></polygon></g><g><path class="edge" d="M 60.87947027848023,258.71334816047334 L 121.32234598544981,258.71334816047334 L181.7652216924194,258.71334816047334"></path><polygon class="arrow" transform="translate(170.43188835908606,252.0466814938067)" points="13.333333333333334,6.666666666666667 0,13.333333333333334 0,0"></polygon></g></g><g class="architecture-services"><g transform="translate(-245.26522169241935,-184.71334816047332)" class="architecture-service"><g transform="translate(40, 80)" text-anchor="middle" dominant-baseline="middle" alignment-baseline="middle" dy="1em"><g><rect style="stroke: none" class="background"></rect><text style="" y="-10.1"><tspan dy="1.1em" y="-0.1em" x="0" class="text-outer-tspan"><tspan font-weight="normal" class="text-inner-tspan" font-style="normal">GitHub</tspan></tspan><tspan dy="1.1em" y="1em" x="0" class="text-outer-tspan"><tspan font-weight="normal" class="text-inner-tspan" font-style="normal">Enterprise</tspan></tspan></text></g></g><g><g><svg viewBox="0 0 512 139" height="80" width="80" xmlns="http://www.w3.org/2000/svg"><path d="M98.696 59.312h-43.06a2.015 2.015 0 0 0-2.013 2.014v21.053c0 1.111.902 2.015 2.012 2.015h16.799v26.157s-3.772 1.286-14.2 1.286c-12.303 0-29.49-4.496-29.49-42.288c0-37.8 17.897-42.773 34.698-42.773c14.543 0 20.809 2.56 24.795 3.794c1.253.384 2.412-.863 2.412-1.975l4.803-20.342c0-.52-.176-1.146-.769-1.571C93.064 5.527 83.187 0 58.233 0C29.488 0 0 12.23 0 71.023c0 58.795 33.76 67.556 62.21 67.556c23.555 0 37.844-10.066 37.844-10.066c.59-.325.653-1.148.653-1.526V61.326c0-1.11-.9-2.014-2.01-2.014m221.8-51.953c0-1.12-.888-2.024-1.999-2.024h-24.246a2.016 2.016 0 0 0-2.008 2.024l.006 46.856h-37.792V7.36c0-1.12-.892-2.024-2.001-2.024H228.21a2.014 2.014 0 0 0-2.003 2.024v126.872c0 1.12.9 2.03 2.003 2.03h24.245c1.109 0 2-.91 2-2.03V79.964h37.793l-.066 54.267c0 1.12.9 2.03 2.008 2.03h24.304c1.11 0 1.998-.91 2-2.03zM144.37 24.322c0-8.73-7-15.786-15.635-15.786c-8.627 0-15.632 7.055-15.632 15.786c0 8.72 7.005 15.795 15.632 15.795c8.635 0 15.635-7.075 15.635-15.795m-1.924 83.212V48.97a2.015 2.015 0 0 0-2.006-2.021h-24.169c-1.109 0-2.1 1.144-2.1 2.256v83.905c0 2.466 1.536 3.199 3.525 3.199h21.775c2.39 0 2.975-1.173 2.975-3.239zM413.162 46.95h-24.06c-1.104 0-2.002.909-2.002 2.028v62.21s-6.112 4.472-14.788 4.472s-10.977-3.937-10.977-12.431v-54.25c0-1.12-.897-2.03-2.001-2.03h-24.419c-1.102 0-2.005.91-2.005 2.03v58.358c0 25.23 14.063 31.403 33.408 31.403c15.87 0 28.665-8.767 28.665-8.767s.61 4.62.885 5.168c.276.547.994 1.098 1.77 1.098l15.535-.068c1.102 0 2.005-.911 2.005-2.025l-.008-85.168a2.02 2.02 0 0 0-2.008-2.028m55.435 68.758c-8.345-.254-14.006-4.041-14.006-4.041V71.488s5.585-3.423 12.436-4.035c8.664-.776 17.013 1.841 17.013 22.51c0 21.795-3.768 26.096-15.443 25.744m9.49-71.483c-13.665 0-22.96 6.097-22.96 6.097V7.359a2.01 2.01 0 0 0-2-2.024h-24.315a2.013 2.013 0 0 0-2.004 2.024v126.872c0 1.12.898 2.03 2.007 2.03h16.87c.76 0 1.335-.39 1.76-1.077c.419-.682 1.024-5.85 1.024-5.85s9.942 9.422 28.763 9.422c22.096 0 34.768-11.208 34.768-50.315s-20.238-44.217-33.913-44.217M212.229 46.73h-18.187l-.028-24.027c0-.909-.468-1.364-1.52-1.364H167.71c-.964 0-1.481.424-1.481 1.35v24.83s-12.42 2.998-13.26 3.24a2.01 2.01 0 0 0-1.452 1.934v15.603c0 1.122.896 2.027 2.005 2.027h12.707v37.536c0 27.88 19.556 30.619 32.753 30.619c6.03 0 13.243-1.937 14.434-2.376c.72-.265 1.138-1.01 1.138-1.82l.02-17.164c0-1.119-.945-2.025-2.01-2.025c-1.06 0-3.77.431-6.562.431c-8.933 0-11.96-4.154-11.96-9.53l-.001-35.67h18.188a2.014 2.014 0 0 0 2.006-2.028V48.753c0-1.12-.897-2.022-2.006-2.022" fill="#11110F"></path></svg></g></g></g><g transform="translate(-19.120529721519773,-184.71334816047332)" class="architecture-service"><g transform="translate(40, 80)" text-anchor="middle" dominant-baseline="middle" alignment-baseline="middle" dy="1em"><g><rect style="stroke: none" class="background"></rect><text style="" y="-10.1"><tspan dy="1.1em" y="-0.1em" x="0" class="text-outer-tspan"><tspan font-weight="normal" class="text-inner-tspan" font-style="normal">prevent</tspan><tspan font-weight="normal" class="text-inner-tspan" font-style="normal"> ingress</tspan></tspan></text></g></g><g><g><svg viewBox="0 0 512 512" height="80" width="80" xmlns="http://www.w3.org/2000/svg"><path d="m320 85.333l149.333 85.333v170.667L320 426.666l-149.333-85.333v-42.667h43.09l.001 18.006L320 377.386l106.22-60.714V195.306L320 134.592l-106.242 60.714v18.027h-43.091v-42.667zm-27.582 91.582L371.503 256l-79.085 79.085l-30.17-30.17l27.571-27.582H64v-42.667h225.82l-27.572-27.581z" fill-rule="evenodd" fill="currentColor"></path></svg></g></g></g><g transform="translate(-19.120529721519773,17.05207461911455)" class="architecture-service"><g transform="translate(40, 80)" text-anchor="middle" dominant-baseline="middle" alignment-baseline="middle" dy="1em"><g><rect style="stroke: none" class="background"></rect><text style="" y="-10.1"><tspan dy="1.1em" y="-0.1em" x="0" class="text-outer-tspan"><tspan font-weight="normal" class="text-inner-tspan" font-style="normal">prevent</tspan></tspan><tspan dy="1.1em" y="1em" x="0" class="text-outer-tspan"><tspan font-weight="normal" class="text-inner-tspan" font-style="normal">nodeport</tspan></tspan></text></g></g><g><g><svg viewBox="0 0 32 32" height="80" width="80" xmlns="http://www.w3.org/2000/svg"><circle fill="currentColor" r="2" cy="9" cx="16"></circle><circle fill="currentColor" r="2" cy="16" cx="16"></circle><path d="M18.816 26A3 3 0 0 0 17 24.184V22h3a1 1 0 0 0 .768-.36l5-6a1 1 0 0 0 .208-.857l-2-9a1 1 0 0 0-.582-.702l-7-3a1 1 0 0 0-.788 0l-7.001 3a1 1 0 0 0-.583.702l-1.998 9a1 1 0 0 0 .208.857l5 6A1 1 0 0 0 12 22h3v2.185A3 3 0 0 0 13.184 26H4v2h9.184c.414 1.161 1.514 2 2.816 2s2.402-.839 2.816-2H28v-2zM8.083 14.737l1.78-8.02L16 4.087l6.135 2.63l1.782 8.02L19.532 20h-7.064zM16 28a1.001 1.001 0 0 1 0-2a1.001 1.001 0 0 1 0 2" fill="currentColor"></path></svg></g></g></g><g transform="translate(-19.120529721519773,218.71334816047334)" class="architecture-service"><g transform="translate(40, 80)" text-anchor="middle" dominant-baseline="middle" alignment-baseline="middle" dy="1em"><g><rect style="stroke: none" class="background"></rect><text style="" y="-10.1"><tspan dy="1.1em" y="-0.1em" x="0" class="text-outer-tspan"><tspan font-weight="normal" class="text-inner-tspan" font-style="normal">prevent</tspan><tspan font-weight="normal" class="text-inner-tspan" font-style="normal"> deploy</tspan></tspan></text></g></g><g><g><svg viewBox="0 0 32 32" height="80" width="80" xmlns="http://www.w3.org/2000/svg"><path d="m22.505 11.637l-5.989-3.5a1 1 0 0 0-1.008-.001l-6.011 3.5A1 1 0 0 0 9 12.5v7a1 1 0 0 0 .497.864l6.011 3.5A.96.96 0 0 0 16 24c.174 0 .36-.045.516-.137l5.989-3.5A1 1 0 0 0 23 19.5v-7a1 1 0 0 0-.495-.863m-6.494-1.48l4.007 2.343l-4.007 2.342l-4.023-2.342zM11 14.24l4 2.33v4.685l-4-2.33zm6 7.025v-4.683l4-2.338v4.683z" fill="currentColor"></path><path d="M16 31a1 1 0 0 1-.504-.136l-12-7A1 1 0 0 1 3 23V9a1 1 0 0 1 .496-.864l12-7a1 1 0 0 1 1.008 0l11 6.417l-1.008 1.727L16 3.158L5 9.574v12.852l11 6.416l11-6.416V15h2v8a1 1 0 0 1-.496.864l-12 7A1 1 0 0 1 16 31" fill="currentColor"></path></svg></g></g></g><g transform="translate(181.7652216924194,218.71334816047334)" class="architecture-service"><g transform="translate(40, 80)" text-anchor="middle" dominant-baseline="middle" alignment-baseline="middle" dy="1em"><g><rect style="stroke: none" class="background"></rect><text style="" y="-10.1"><tspan dy="1.1em" y="-0.1em" x="0" class="text-outer-tspan"><tspan font-weight="normal" class="text-inner-tspan" font-style="normal">k8s</tspan><tspan font-weight="normal" class="text-inner-tspan" font-style="normal"> secret</tspan></tspan></text></g></g><g><g><svg viewBox="0 0 16 16" height="80" width="80" xmlns="http://www.w3.org/2000/svg"><path clip-rule="evenodd" d="M3 14h4v.91l.09.09H2.5l-.5-.5v-13l.5-.5h7.72l.35.14l3.28 3.3l.15.36v2.54a3.1 3.1 0 0 0-1-.94V6H9.5L9 5.5V2H3zm10-9l-3-3v3zm.5 4v1h1l.5.5v4l-.5.5h-6l-.5-.5v-4l.5-.5h1V9a2 2 0 0 1 4 0m-2.707-.707A1 1 0 0 0 10.5 9v1h2V9a1 1 0 0 0-1.707-.707M9 11v3h5v-3z" fill-rule="evenodd" fill="currentColor"></path></svg></g></g></g></g><g class="architecture-groups"><rect class="node-bkg" height="668.4266963209467" width="658.5304433848387" y="-268.71334816047334" x="-312.76522169241935"></rect><g><g transform="translate(-311.76522169241935, -267.71334816047334)"><g><svg viewBox="0 0 16 16" height="30" width="30" xmlns="http://www.w3.org/2000/svg"><path clip-rule="evenodd" d="M13.5 11a1.5 1.5 0 1 0-3 0a1.5 1.5 0 0 0 3 0M12 14a3 3 0 1 0-.79-5.895L10.092 6.15a3 3 0 1 0-4.185 0L4.79 8.105A3.003 3.003 0 0 0 1 11a3 3 0 1 0 5.092-2.15L7.21 6.895a3 3 0 0 0 1.58 0L9.908 8.85A3 3 0 0 0 12 14m-6.5-3a1.5 1.5 0 1 0-3 0a1.5 1.5 0 0 0 3 0M8 2.5a1.5 1.5 0 1 1 0 3a1.5 1.5 0 0 1 0-3" fill-rule="evenodd" fill="currentColor"></path></svg></g></g><g transform="translate(-278.76522169241935, -261.71334816047334)" text-anchor="start" dominant-baseline="start" alignment-baseline="middle" dy="1em"><g><rect style="stroke: none" class="background"></rect><text style="" y="-10.1"><tspan dy="1.1em" y="-0.1em" x="0" class="text-outer-tspan"><tspan font-weight="normal" class="text-inner-tspan" font-style="normal">Network</tspan><tspan font-weight="normal" class="text-inner-tspan" font-style="normal"> Perimeter</tspan></tspan></text></g></g></g><rect class="node-bkg" height="585.4266963209467" width="388.88575141393915" y="-227.21334816047334" x="-84.62052972151976"></rect><g><g transform="translate(-83.62052972151976, -226.21334816047334)"><g><svg viewBox="0 0 256 249" height="30" width="30" xmlns="http://www.w3.org/2000/svg"><path d="M82.085 244.934c-5.946 0-11.561-2.642-15.36-7.432L8.92 165.657c-3.799-4.79-5.285-10.9-3.799-16.847l20.645-89.682c1.321-5.946 5.285-10.736 10.736-13.378l83.571-39.97c2.643-1.32 5.616-1.981 8.589-1.981s5.945.66 8.588 1.982l83.572 39.804c5.45 2.642 9.414 7.432 10.735 13.378l20.645 89.682c1.322 5.946 0 12.057-3.798 16.847l-57.807 71.845c-3.799 4.624-9.414 7.432-15.36 7.432z" fill="#326DE6"></path><path d="M128.495 7.928c2.313 0 4.625.495 6.772 1.486l83.572 39.804c4.294 2.147 7.597 6.111 8.588 10.736l20.645 89.682c1.156 4.79 0 9.745-3.138 13.543l-57.806 71.846c-2.973 3.798-7.598 5.945-12.387 5.945H82.085c-4.79 0-9.414-2.147-12.387-5.945l-57.806-71.846c-2.973-3.798-4.13-8.753-3.138-13.543l20.645-89.682c1.156-4.79 4.294-8.754 8.588-10.736L121.56 9.25c2.147-.826 4.624-1.321 6.936-1.321m0-7.763c-3.468 0-6.936.826-10.24 2.312l-83.571 39.97c-6.607 3.138-11.231 8.918-12.883 16.02L1.156 148.15c-1.651 7.102 0 14.369 4.625 20.15l57.806 71.845c4.46 5.615 11.231 8.753 18.333 8.753h92.655c7.102 0 13.874-3.138 18.333-8.753l57.807-71.846c4.624-5.615 6.276-13.047 4.624-20.15l-20.645-89.682c-1.651-7.102-6.276-12.882-12.882-16.02L138.57 2.476C135.432.991 131.964.165 128.495.165" fill="#FFF"></path><path d="M212.232 142.534q-.248 0 0 0h-.165c-.165 0-.33 0-.33-.165c-.33 0-.66-.165-.991-.165c-1.156-.165-2.147-.33-3.138-.33c-.496 0-.991 0-1.652-.166h-.165c-3.468-.33-6.276-.66-8.919-1.486c-1.156-.496-1.486-1.156-1.817-1.817c0-.165-.165-.165-.165-.33l-2.147-.66a65.3 65.3 0 0 0-1.156-23.289a68 68 0 0 0-9.249-21.636l1.652-1.486v-.33c0-.826.165-1.652.825-2.478c1.982-1.817 4.46-3.303 7.433-5.12c.495-.33.99-.495 1.486-.826c.991-.495 1.817-.99 2.808-1.651c.165-.165.495-.33.826-.66c.165-.166.33-.166.33-.331c2.312-1.982 2.808-5.285 1.156-7.433c-.826-1.156-2.312-1.816-3.799-1.816c-1.32 0-2.477.495-3.633 1.321l-.33.33c-.33.165-.496.496-.826.661c-.826.826-1.487 1.486-2.147 2.312c-.33.33-.66.826-1.156 1.156c-2.313 2.478-4.46 4.46-6.607 5.946q-.742.495-1.486.496c-.33 0-.661 0-.991-.166h-.33l-1.983 1.322c-2.147-2.312-4.459-4.294-6.771-6.276a65.96 65.96 0 0 0-34.519-13.709l-.165-2.147l-.33-.33c-.496-.496-1.156-.991-1.322-2.147c-.165-2.643.166-5.616.496-8.919v-.165c0-.496.165-1.156.33-1.652c.165-.99.33-1.982.496-3.138v-1.486c0-2.973-2.313-5.45-5.12-5.45c-1.322 0-2.643.66-3.634 1.651c-.99.991-1.486 2.312-1.486 3.799v1.321c0 1.156.165 2.147.495 3.138c.165.496.165.991.33 1.652v.165c.33 3.303.826 6.276.496 8.919c-.165 1.156-.826 1.651-1.321 2.147l-.33.33l-.166 2.147c-2.973.33-5.946.66-8.919 1.321c-12.717 2.808-23.948 9.25-32.701 18.498l-1.652-1.156h-.33c-.33 0-.661.165-.991.165q-.743 0-1.487-.495c-2.147-1.486-4.294-3.634-6.606-6.111c-.33-.33-.66-.826-1.156-1.156c-.661-.826-1.322-1.487-2.148-2.312c-.165-.166-.495-.33-.825-.661c-.165-.165-.33-.165-.33-.33a5.77 5.77 0 0 0-3.634-1.322c-1.487 0-2.973.661-3.799 1.817c-1.652 2.147-1.156 5.45 1.156 7.432c.165 0 .165.166.33.166c.33.165.496.495.826.66c.991.66 1.817 1.156 2.808 1.652c.496.165.991.495 1.487.826c2.972 1.816 5.45 3.303 7.432 5.12c.826.825.826 1.651.826 2.477v.33l1.651 1.487c-.33.495-.66.826-.826 1.321c-8.258 13.048-11.396 28.408-9.249 43.603l-2.147.66c0 .166-.165.166-.165.33c-.33.661-.826 1.322-1.817 1.817c-2.477.826-5.45 1.157-8.918 1.487h-.166c-.495 0-1.156 0-1.651.165c-.991 0-1.982.165-3.138.33c-.33 0-.66.166-.991.166c-.165 0-.33 0-.496.165c-2.973.66-4.79 3.468-4.294 6.11c.496 2.313 2.643 3.8 5.285 3.8c.496 0 .826 0 1.322-.166c.165 0 .33 0 .33-.165c.33 0 .66-.165.99-.165c1.157-.33 1.983-.66 2.974-1.156c.495-.165.99-.496 1.486-.66h.165c3.138-1.157 5.946-2.148 8.589-2.478h.33c.991 0 1.652.495 2.147.826c.165 0 .165.165.33.165l2.313-.33c3.964 12.221 11.561 23.122 21.636 31.05c2.312 1.816 4.624 3.303 7.102 4.79l-.991 2.146c0 .166.165.166.165.33c.33.661.66 1.487.33 2.643c-.99 2.478-2.477 4.955-4.294 7.763v.165c-.33.496-.66.826-.99 1.321c-.661.826-1.157 1.652-1.818 2.643c-.165.165-.33.495-.495.826c0 .165-.165.33-.165.33c-1.321 2.808-.33 5.946 2.147 7.102q.99.496 1.982.496c1.982 0 3.964-1.322 4.955-3.139c0-.165.165-.33.165-.33c.165-.33.33-.66.495-.826c.496-1.156.661-1.982.991-2.973l.496-1.486c1.156-3.303 1.982-5.946 3.468-8.258c.66-.991 1.487-1.156 2.147-1.487c.165 0 .165 0 .33-.165l1.157-2.147c7.267 2.808 15.195 4.294 23.122 4.294c4.79 0 9.745-.495 14.37-1.651a73 73 0 0 0 8.588-2.478l.99 1.817c.166 0 .166 0 .331.165c.826.165 1.486.496 2.147 1.487c1.321 2.312 2.312 5.12 3.468 8.258v.165l.496 1.486c.33.991.495 1.982.99 2.973c.166.33.331.496.496.826c0 .165.166.33.166.33c.99 1.982 2.972 3.139 4.954 3.139q.992 0 1.982-.496c1.156-.66 2.147-1.652 2.478-2.973c.33-1.321.33-2.808-.33-4.129c0-.165-.166-.165-.166-.33c-.165-.33-.33-.66-.495-.826c-.496-.991-1.156-1.817-1.817-2.643c-.33-.495-.66-.825-.99-1.32v-.166c-1.818-2.808-3.47-5.285-4.295-7.763c-.33-1.156 0-1.816.165-2.642c0-.165.165-.165.165-.33l-.826-1.982c8.754-5.12 16.186-12.388 21.802-21.306c2.973-4.625 5.285-9.745 6.936-14.865l1.982.33c.166 0 .166-.165.33-.165c.661-.33 1.157-.825 2.148-.825h.33c2.643.33 5.45 1.32 8.589 2.477h.165c.495.165.99.495 1.486.66c.991.496 1.817.826 2.973 1.157c.33 0 .66.165.991.165c.165 0 .33 0 .495.165c.496.165.826.165 1.322.165c2.477 0 4.624-1.651 5.285-3.798c0-1.982-1.817-4.625-4.79-5.45m-76.47-8.093l-7.267 3.469l-7.267-3.469l-1.816-7.762l4.954-6.276h8.093l4.955 6.276zm43.108-17.176a52.1 52.1 0 0 1 1.156 16.68l-25.27-7.266c-2.312-.66-3.633-2.973-3.138-5.285c.165-.661.496-1.322.991-1.817l19.985-18.003c2.807 4.625 4.954 9.91 6.276 15.69m-14.204-25.6l-21.636 15.36c-1.817 1.156-4.295.825-5.781-.991c-.495-.496-.66-1.157-.826-1.817l-1.486-26.922a50.13 50.13 0 0 1 29.729 14.37M116.769 78.12c1.817-.33 3.468-.66 5.285-.99l-1.486 26.425c-.165 2.312-1.982 4.294-4.46 4.294c-.66 0-1.486-.165-1.982-.495L92.16 91.665c6.772-6.772 15.195-11.397 24.609-13.544m-32.537 23.453l19.654 17.507c1.817 1.487 1.982 4.294.496 6.111c-.496.66-1.156 1.156-1.982 1.322l-25.6 7.432c-.991-11.231 1.486-22.627 7.432-32.372m-4.46 44.759l26.262-4.46c2.147-.165 4.129 1.322 4.624 3.469c.165.99.165 1.817-.165 2.643l-10.075 24.278c-9.249-5.946-16.681-15.03-20.645-25.93m60.285 32.867c-3.799.826-7.598 1.321-11.562 1.321c-5.78 0-11.396-.99-16.68-2.642l13.047-23.618c1.321-1.487 3.468-2.147 5.285-1.156a7 7 0 0 1 1.982 1.816l12.717 22.958c-1.486.495-3.138.826-4.79 1.321m32.206-22.957c-4.129 6.606-9.58 11.891-15.855 16.02l-10.405-24.94c-.496-1.981.33-4.128 2.312-5.12c.66-.33 1.486-.495 2.312-.495l26.426 4.46c-.991 3.633-2.643 6.937-4.79 10.075" fill="#FFF"></path></svg></g></g><g transform="translate(-50.62052972151976, -220.21334816047334)" text-anchor="start" dominant-baseline="start" alignment-baseline="middle" dy="1em"><g><rect style="stroke: none" class="background"></rect><text style="" y="-10.1"><tspan dy="1.1em" y="-0.1em" x="0" class="text-outer-tspan"><tspan font-weight="normal" class="text-inner-tspan" font-style="normal">K8S</tspan><tspan font-weight="normal" class="text-inner-tspan" font-style="normal"> Cluster</tspan></tspan></text></g></g></g></g></svg>